{"accessors" : [{"bufferView" : 0, "byteOffset" : 0, "componentType" : 5123, "count" : 18753, "type" : "SCALAR", "max" : [5976], "min" : [0]}, {"bufferView" : 1, "byteOffset" : 0, "componentType" : 5126, "count" : 5977, "type" : "VEC3", "max" : [5.455906867980957, 1.7216708660125732, -4.046619415283203], "min" : [-5.800891876220703, -6.239288330078125, -9.43628215789795], "name" : "POSITION"}, {"bufferView" : 1, "byteOffset" : 12, "componentType" : 5126, "count" : 5977, "type" : "VEC2", "max" : [0.9989145994186401, 0.9999972581863403], "min" : [7.113791070878506E-05, 0.00033930782228708267], "name" : "TEXCOORD_0"}], "asset" : {"generator" : "Aspose.3D 21.5", "version" : "2.0"}, "buffers" : [{"uri" : "data:application/octet-stream;base64,", "byteLength" : 412576}], "bufferViews" : [{"buffer" : 0, "byteOffset" : 0, "byteLength" : 37508, "target" : 34963}, {"buffer" : 0, "byteOffset" : 37512, "byteLength" : 375060, "byteStride" : 20, "target" : 34962}], "images" : [{"uri" : "data:image/jpeg;base64,"}], "materials" : [{"pbrMetallicRoughness" : {"baseColorFactor" : [1, 1, 1, 1], "baseColorTexture" : {"index" : 0, "texCoord" : 0}, "metallicFactor" : 0, "roughnessFactor" : 1}, "emissiveFactor" : [0, 0, 0], "alphaMode" : "OPAQUE", "doubleSided" : false}], "meshes" : [{"primitives" : [{"attributes" : {"POSITION" : 1, "TEXCOORD_0" : 2}, "indices" : 0, "material" : 0, "mode" : 4}]}], "nodes" : [{"mesh" : 0}], "samplers" : [{"magFilter" : 9728, "minFilter" : 9729, "wrapS" : 10497, "wrapT" : 10497}], "scene" : 0, "scenes" : [{"nodes" : [0]}], "textures" : [{"sampler" : 0, "source" : 0}]}