<?xml version="1.0" encoding="UTF-8" standalone="no"?>
<!-- Created with Inkscape (http://www.inkscape.org/) -->

<svg
   width="200"
   height="200"
   viewBox="0 0 52.916666 52.916666"
   version="1.1"
   id="svg5"
   inkscape:version="1.1.1 (3bf5ae0d25, 2021-09-20)"
   sodipodi:docname="text4.svg"
   xmlns:inkscape="http://www.inkscape.org/namespaces/inkscape"
   xmlns:sodipodi="http://sodipodi.sourceforge.net/DTD/sodipodi-0.dtd"
   xmlns="http://www.w3.org/2000/svg"
   xmlns:svg="http://www.w3.org/2000/svg">
  <sodipodi:namedview
     id="namedview7"
     pagecolor="#ffffff"
     bordercolor="#666666"
     borderopacity="1.0"
     inkscape:pageshadow="2"
     inkscape:pageopacity="0.0"
     inkscape:pagecheckerboard="0"
     inkscape:document-units="mm"
     showgrid="false"
     width="200px"
     units="px"
     inkscape:zoom="1.4289282"
     inkscape:cx="-54.586368"
     inkscape:cy="142.41443"
     inkscape:window-width="1920"
     inkscape:window-height="991"
     inkscape:window-x="-9"
     inkscape:window-y="-9"
     inkscape:window-maximized="1"
     inkscape:current-layer="text1021" />
  <defs
     id="defs2">
    <rect
       x="-89.577631"
       y="352.71192"
       width="142.76435"
       height="174.95631"
       id="rect10312" />
    <rect
       x="249.13779"
       y="333.11682"
       width="331.71716"
       height="254.73639"
       id="rect1023" />
    <rect
       x="-89.577629"
       y="352.71191"
       width="142.76434"
       height="174.95631"
       id="rect10312-4" />
    <rect
       x="-89.577629"
       y="352.71191"
       width="142.76434"
       height="174.95631"
       id="rect10312-4-1" />
    <rect
       x="-89.577629"
       y="352.71191"
       width="142.76434"
       height="174.95631"
       id="rect10312-4-3" />
    <rect
       x="-89.577629"
       y="352.71191"
       width="142.76434"
       height="174.95631"
       id="rect10312-4-6" />
    <rect
       x="-89.577629"
       y="352.71191"
       width="142.76434"
       height="174.95631"
       id="rect10312-4-5" />
  </defs>
  <g
     inkscape:label="图层 1"
     inkscape:groupmode="layer"
     id="layer1">
    <g
       aria-label="土"
       transform="matrix(1.2135816,0,0,1.4770582,-299.86958,-496.37774)"
       id="text1021"
       style="font-size:40px;line-height:1.25;white-space:pre;shape-inside:url(#rect1023)">
      <text
         xml:space="preserve"
         transform="matrix(0.33770962,0,0,0.30296694,257.4584,282.1583)"
         id="text10310-7"
         style="font-style:normal;font-weight:normal;font-size:96px;line-height:1.25;font-family:sans-serif;white-space:pre;shape-inside:url(#rect10312-4);fill:#000000;fill-opacity:1;stroke:none"><tspan
           x="-89.578125"
           y="440.29465"
           id="tspan17067"><tspan
             style="fill:#99d4ff"
             id="tspan17065">土</tspan></tspan></text>
      <g
         aria-label="收"
         transform="matrix(0.33770962,0,0,0.30296694,282.47882,230.77322)"
         id="text10310-7-9"
         style="font-size:96px;shape-inside:url(#rect10312-4-5);fill:#99d4ff">
        <path
           d="m -55.921875,400.40402 q 12,-20.8125 17.34375,-40.21875 l 7.59375,2.15625 q -3,8.67188 -6.28125,16.59375 h 40.875 v 6.9375 H -7.40625 q -1.40625,27.14063 -13.921875,44.20313 9.515625,8.4375 27,14.67187 -2.90625,3.65625 -5.34375,7.5 -16.6875,-7.125 -26.625,-16.45312 -9.046875,8.90625 -25.03125,17.29687 -1.96875,-3.09375 -4.78125,-6.28125 15.984375,-8.01562 24.703125,-16.59375 -10.828125,-13.54687 -14.015625,-33.65625 -2.625,5.10938 -5.4375,9.84375 -1.78125,-2.71875 -5.0625,-6 z m -8.4375,-39.46875 h 7.125 v 91.59375 h -7.125 v -28.92187 q -5.71875,3.1875 -11.625,7.07812 -2.4375,1.78125 -4.78125,4.21875 l -5.34375,-6.28125 q 2.90625,-3.09375 2.90625,-8.0625 v -46.5 h 7.125 v 48 q 5.578125,-2.95312 11.71875,-6.28125 z m 49.546875,24.9375 H -39.75 q 1.359375,22.875 13.21875,38.53125 10.6875,-15.04687 11.71875,-38.53125 z"
           id="path16970" />
      </g>
    </g>
  </g>
</svg>
