<?xml version="1.0" encoding="UTF-8" standalone="no"?>
<!-- Created with Inkscape (http://www.inkscape.org/) -->

<svg
   width="200"
   height="200"
   viewBox="0 0 52.916666 52.916666"
   version="1.1"
   id="svg5"
   inkscape:version="1.1.1 (3bf5ae0d25, 2021-09-20)"
   sodipodi:docname="text3.svg"
   xmlns:inkscape="http://www.inkscape.org/namespaces/inkscape"
   xmlns:sodipodi="http://sodipodi.sourceforge.net/DTD/sodipodi-0.dtd"
   xmlns="http://www.w3.org/2000/svg"
   xmlns:svg="http://www.w3.org/2000/svg">
  <sodipodi:namedview
     id="namedview7"
     pagecolor="#ffffff"
     bordercolor="#666666"
     borderopacity="1.0"
     inkscape:pageshadow="2"
     inkscape:pageopacity="0.0"
     inkscape:pagecheckerboard="0"
     inkscape:document-units="mm"
     showgrid="false"
     width="200px"
     units="px"
     inkscape:zoom="1.4289282"
     inkscape:cx="-54.586368"
     inkscape:cy="142.41443"
     inkscape:window-width="1920"
     inkscape:window-height="991"
     inkscape:window-x="-9"
     inkscape:window-y="-9"
     inkscape:window-maximized="1"
     inkscape:current-layer="text1021" />
  <defs
     id="defs2">
    <rect
       x="-89.577631"
       y="352.71192"
       width="142.76435"
       height="174.95631"
       id="rect10312" />
    <rect
       x="249.13779"
       y="333.11682"
       width="331.71716"
       height="254.73639"
       id="rect1023" />
    <rect
       x="-89.577629"
       y="352.71191"
       width="142.76434"
       height="174.95631"
       id="rect10312-4" />
    <rect
       x="-89.577629"
       y="352.71191"
       width="142.76434"
       height="174.95631"
       id="rect10312-4-1" />
    <rect
       x="-89.577629"
       y="352.71191"
       width="142.76434"
       height="174.95631"
       id="rect10312-4-3" />
    <rect
       x="-89.577629"
       y="352.71191"
       width="142.76434"
       height="174.95631"
       id="rect10312-4-6" />
  </defs>
  <g
     inkscape:label="图层 1"
     inkscape:groupmode="layer"
     id="layer1">
    <g
       aria-label="土"
       transform="matrix(1.2135816,0,0,1.4770582,-299.86958,-496.37774)"
       id="text1021"
       style="font-size:40px;line-height:1.25;white-space:pre;shape-inside:url(#rect1023)">
      <text
         xml:space="preserve"
         transform="matrix(0.33770962,0,0,0.30296694,257.4584,282.1583)"
         id="text10310-7"
         style="font-style:normal;font-weight:normal;font-size:96px;line-height:1.25;font-family:sans-serif;white-space:pre;shape-inside:url(#rect10312-4);fill:#000000;fill-opacity:1;stroke:none"><tspan
           x="-89.578125"
           y="440.29465"
           id="tspan13321"><tspan
             style="fill:#99d4ff"
             id="tspan13319">土</tspan></tspan></text>
      <g
         aria-label="公"
         transform="matrix(0.33770962,0,0,0.30296694,282.92206,231.62531)"
         id="text10310-7-5"
         style="font-size:96px;shape-inside:url(#rect10312-4-6);fill:#99d4ff">
        <path
           d="m -27.421875,416.43527 q 13.5,17.53125 22.78125,31.875 l -7.125,4.6875 q -2.625,-4.3125 -5.578125,-8.95312 -30.9375,1.5 -50.296875,3.04687 -3.5625,0.375 -8.625,1.59375 l -4.125,-7.96875 q 4.21875,-1.6875 7.78125,-5.15625 10.96875,-12.65625 23.8125,-37.40625 l 8.0625,3.65625 q -11.625,19.96875 -24.84375,37.3125 19.359375,-0.60937 43.828125,-1.73437 -5.34375,-8.10938 -11.765625,-17.10938 z m -8.0625,-50.4375 6.9375,-2.71875 q 9.09375,24.46875 33.84375,38.8125 -2.53125,2.625 -5.8125,7.3125 -25.875,-17.8125 -34.96875,-43.40625 z m -52.96875,38.8125 q 20.90625,-17.0625 31.21875,-40.21875 l 7.40625,3.09375 q -12.65625,26.34375 -32.625,43.125 -2.4375,-3.09375 -6,-6 z"
           id="path13263" />
      </g>
    </g>
  </g>
</svg>
