<?xml version="1.0" encoding="UTF-8" standalone="no"?>
<!-- Created with Inkscape (http://www.inkscape.org/) -->

<svg
   width="200"
   height="200"
   viewBox="0 0 52.916666 52.916666"
   version="1.1"
   id="svg5"
   inkscape:version="1.1.1 (3bf5ae0d25, 2021-09-20)"
   sodipodi:docname="text6.svg"
   xmlns:inkscape="http://www.inkscape.org/namespaces/inkscape"
   xmlns:sodipodi="http://sodipodi.sourceforge.net/DTD/sodipodi-0.dtd"
   xmlns="http://www.w3.org/2000/svg"
   xmlns:svg="http://www.w3.org/2000/svg">
  <sodipodi:namedview
     id="namedview7"
     pagecolor="#ffffff"
     bordercolor="#666666"
     borderopacity="1.0"
     inkscape:pageshadow="2"
     inkscape:pageopacity="0.0"
     inkscape:pagecheckerboard="0"
     inkscape:document-units="mm"
     showgrid="false"
     width="200px"
     units="px"
     inkscape:zoom="1.4289282"
     inkscape:cx="-54.586368"
     inkscape:cy="142.41443"
     inkscape:window-width="1920"
     inkscape:window-height="991"
     inkscape:window-x="-9"
     inkscape:window-y="-9"
     inkscape:window-maximized="1"
     inkscape:current-layer="text1021" />
  <defs
     id="defs2">
    <rect
       x="-89.577631"
       y="352.71192"
       width="142.76435"
       height="174.95631"
       id="rect10312" />
    <rect
       x="249.13779"
       y="333.11682"
       width="331.71716"
       height="254.73639"
       id="rect1023" />
    <rect
       x="-89.577629"
       y="352.71191"
       width="142.76434"
       height="174.95631"
       id="rect10312-4" />
    <rect
       x="-89.577629"
       y="352.71191"
       width="142.76434"
       height="174.95631"
       id="rect10312-4-1" />
    <rect
       x="-89.577629"
       y="352.71191"
       width="142.76434"
       height="174.95631"
       id="rect10312-4-3" />
    <rect
       x="-89.577629"
       y="352.71191"
       width="142.76434"
       height="174.95631"
       id="rect10312-4-6" />
    <rect
       x="-89.577629"
       y="352.71191"
       width="142.76434"
       height="174.95631"
       id="rect10312-4-5" />
    <rect
       x="-89.577629"
       y="352.71191"
       width="142.76434"
       height="174.95631"
       id="rect10312-4-53" />
    <rect
       x="-89.577629"
       y="352.71191"
       width="142.76434"
       height="174.95631"
       id="rect10312-4-9" />
  </defs>
  <g
     inkscape:label="图层 1"
     inkscape:groupmode="layer"
     id="layer1">
    <g
       aria-label="土"
       transform="matrix(1.2135816,0,0,1.4770582,-299.86958,-496.37774)"
       id="text1021"
       style="font-size:40px;line-height:1.25;white-space:pre;shape-inside:url(#rect1023)">
      <text
         xml:space="preserve"
         transform="matrix(0.33770962,0,0,0.30296694,221.90845,271.62816)"
         id="text10310-7"
         style="font-style:normal;font-weight:normal;font-size:96px;line-height:1.25;font-family:sans-serif;white-space:pre;shape-inside:url(#rect10312-4);fill:#000000;fill-opacity:1;stroke:none"><tspan
           x="-89.578125"
           y="440.29465"
           id="tspan27571"><tspan
             style="fill:#99d4ff"
             id="tspan27569">土</tspan></tspan></text>
      <g
         aria-label="架"
         transform="matrix(0.33770962,0,0,0.30296694,282.95372,230.77322)"
         id="text10310-7-0"
         style="font-size:96px;shape-inside:url(#rect10312-4-9);fill:#99d4ff">
        <path
           d="m 5.109375,441.65402 q -3.46875,3.84375 -5.8125,7.125 -23.34375,-7.96875 -37.3125,-24.89062 v 29.29687 h -7.125 v -29.4375 q -15.75,17.15625 -37.6875,26.15625 -2.15625,-2.8125 -5.4375,-6.375 21.328125,-7.26562 37.78125,-21.375 h -36.09375 v -6.5625 h 41.4375 v -10.5 h 7.125 v 10.5 h 41.90625 v 6.5625 H -33 q 15.140625,14.67188 38.109375,19.5 z m -40.875,-73.3125 h 34.125 v 36.9375 h -6.9375 v -4.78125 h -20.25 v 5.0625 h -6.9375 z m -49.59375,2.53125 h 13.5 q 0.28125,-4.875 0.28125,-10.78125 h 6.9375 q 0,5.85938 -0.234375,10.78125 h 21.046875 q -0.46875,12.9375 -1.03125,20.90625 -0.5625,8.53125 -3.28125,11.4375 -2.4375,2.90625 -9.375,2.90625 -2.8125,0 -7.3125,-0.0937 -0.65625,-3.75 -1.59375,-7.03125 5.53125,0.5625 8.53125,0.5625 5.4375,0 5.90625,-5.90625 0.75,-9.28125 1.03125,-16.40625 H -65.34375 q -0.796875,19.6875 -17.578125,33.46875 -2.15625,-2.53125 -5.4375,-5.15625 14.53125,-10.875 15.9375,-28.3125 h -12.9375 z m 76.78125,3.84375 h -20.25 v 19.40625 h 20.25 z"
           id="path27429" />
      </g>
      <g
         aria-label="藏"
         transform="matrix(0.33770962,0,0,0.30296694,282.95372,230.41818)"
         id="text10310-7-1"
         style="font-size:96px;fill:#99d4ff" />
    </g>
  </g>
</svg>
