<?xml version="1.0" encoding="UTF-8" standalone="no"?>
<!-- Created with Inkscape (http://www.inkscape.org/) -->

<svg
   width="200"
   height="200"
   viewBox="0 0 52.916666 52.916666"
   version="1.1"
   id="svg5"
   inkscape:version="1.1.1 (3bf5ae0d25, 2021-09-20)"
   sodipodi:docname="text5.svg"
   xmlns:inkscape="http://www.inkscape.org/namespaces/inkscape"
   xmlns:sodipodi="http://sodipodi.sourceforge.net/DTD/sodipodi-0.dtd"
   xmlns="http://www.w3.org/2000/svg"
   xmlns:svg="http://www.w3.org/2000/svg">
  <sodipodi:namedview
     id="namedview7"
     pagecolor="#ffffff"
     bordercolor="#666666"
     borderopacity="1.0"
     inkscape:pageshadow="2"
     inkscape:pageopacity="0.0"
     inkscape:pagecheckerboard="0"
     inkscape:document-units="mm"
     showgrid="false"
     width="200px"
     units="px"
     inkscape:zoom="1.4289282"
     inkscape:cx="-54.586368"
     inkscape:cy="142.41443"
     inkscape:window-width="1920"
     inkscape:window-height="991"
     inkscape:window-x="-9"
     inkscape:window-y="-9"
     inkscape:window-maximized="1"
     inkscape:current-layer="text1021" />
  <defs
     id="defs2">
    <rect
       x="-89.577631"
       y="352.71192"
       width="142.76435"
       height="174.95631"
       id="rect10312" />
    <rect
       x="249.13779"
       y="333.11682"
       width="331.71716"
       height="254.73639"
       id="rect1023" />
    <rect
       x="-89.577629"
       y="352.71191"
       width="142.76434"
       height="174.95631"
       id="rect10312-4" />
    <rect
       x="-89.577629"
       y="352.71191"
       width="142.76434"
       height="174.95631"
       id="rect10312-4-1" />
    <rect
       x="-89.577629"
       y="352.71191"
       width="142.76434"
       height="174.95631"
       id="rect10312-4-3" />
    <rect
       x="-89.577629"
       y="352.71191"
       width="142.76434"
       height="174.95631"
       id="rect10312-4-6" />
    <rect
       x="-89.577629"
       y="352.71191"
       width="142.76434"
       height="174.95631"
       id="rect10312-4-5" />
    <rect
       x="-89.577629"
       y="352.71191"
       width="142.76434"
       height="174.95631"
       id="rect10312-4-53" />
  </defs>
  <g
     inkscape:label="图层 1"
     inkscape:groupmode="layer"
     id="layer1">
    <g
       aria-label="土"
       transform="matrix(1.2135816,0,0,1.4770582,-299.86958,-496.37774)"
       id="text1021"
       style="font-size:40px;line-height:1.25;white-space:pre;shape-inside:url(#rect1023)">
      <text
         xml:space="preserve"
         transform="matrix(0.33770962,0,0,0.30296694,257.4584,282.1583)"
         id="text10310-7"
         style="font-style:normal;font-weight:normal;font-size:96px;line-height:1.25;font-family:sans-serif;white-space:pre;shape-inside:url(#rect10312-4);fill:#000000;fill-opacity:1;stroke:none"><tspan
           x="-89.578125"
           y="440.29465"
           id="tspan21044"><tspan
             style="fill:#99d4ff"
             id="tspan21042">土</tspan></tspan></text>
      <g
         aria-label="藏"
         transform="matrix(0.33770962,0,0,0.30296694,282.95372,230.41818)"
         id="text10310-7-1"
         style="font-size:96px;fill:#99d4ff">
        <path
           d="m -8.859375,378.93527 3.375,-3 q 3.65625,3.46875 5.71875,6 -1.40625,1.5 -2.8125,2.8125 h 6.75 v 5.625 h -19.40625 q 0.5625,20.15625 1.875,30.84375 6.09375,-10.59375 9,-24.1875 l 5.8125,2.15625 q -4.125,16.96875 -13.5,30.28125 2.25,10.6875 5.625,15.46875 1.40625,1.875 2.53125,1.875 1.5,0 1.96875,-3.9375 0.75,-6 1.40625,-14.71875 3.65625,1.59375 5.8125,2.34375 -1.03125,9.84375 -1.96875,15.65625 -1.40625,7.21875 -6.375,7.21875 -3.9375,0 -7.125,-3.75 -4.03125,-5.0625 -6.375,-14.34375 -3.1875,3.84375 -6.84375,7.21875 -1.40625,-2.15625 -3.46875,-4.96875 4.875,-4.21875 8.8125,-9.375 -2.0625,-13.125 -3.09375,-37.78125 h -43.125 v 29.8125 q 0,14.90625 -1.125,20.34375 -1.3125,7.21875 -6.1875,13.5 -1.78125,-2.53125 -4.6875,-5.53125 4.21875,-5.25 5.25,-11.4375 0.84375,-4.03125 0.9375,-17.15625 h -6.65625 q -0.09375,3.375 -0.09375,8.25 0,14.25 -8.0625,22.21875 -1.59375,-2.8125 -3.65625,-5.8125 5.90625,-6.28125 5.90625,-16.5 v -8.15625 h -5.53125 v -5.4375 h 18.09375 v -8.15625 h -13.78125 v -26.34375 h 6 v 20.90625 h 7.78125 v -16.125 h 48.75 q -0.09375,-3.5625 -0.1875,-7.40625 h 6.09375 q 0,3.84375 0.09375,7.40625 h 11.34375 q -1.21875,-1.59375 -4.875,-5.8125 z m -49.40625,17.4375 h 33.65625 v 5.25 h -10.78125 v 10.96875 h 8.53125 v 21.65625 h -5.34375 v -1.6875 h -3.1875 v 11.4375 h 11.625 v 5.53125 h -34.5 z m -29.34375,-27.5625 h 28.96875 v -7.21875 h 6.1875 v 7.21875 h 17.8125 v -7.21875 h 6.1875 v 7.21875 h 33.46875 v 5.8125 h -33.46875 v 6.75 h -6.1875 v -6.75 h -17.8125 v 6.75 h -6.1875 v -6.75 h -28.96875 z m 55.40625,58.59375 v -9.65625 h -20.4375 v 9.65625 z m -20.4375,16.59375 h 11.8125 v -11.4375 h -11.8125 z m 0,-31.40625 h 11.8125 v -10.96875 h -11.8125 z"
           id="path20920" />
      </g>
    </g>
  </g>
</svg>
